<svg xmlns="http://www.w3.org/2000/svg" xmlns:xlink="http://www.w3.org/1999/xlink" viewBox="0 0 1725.58 792.62"><defs><style>.cls-1{fill:#1d1d1b;filter:url(#luminosity-invert);}.cls-2{fill:#fff;}.cls-3,.cls-4{fill:none;stroke:#fff;stroke-miterlimit:10;stroke-width:20px;}.cls-4{stroke-linecap:round;}.cls-5{mask:url(#mask);}</style><filter id="luminosity-invert" filterUnits="userSpaceOnUse" color-interpolation-filters="sRGB"><feColorMatrix values="-1 0 0 0 1 0 -1 0 0 1 0 0 -1 0 1 0 0 0 1 0"/></filter><mask id="mask" x="1051.22" y="20.86" width="327.18" height="376.43" maskUnits="userSpaceOnUse"><path class="cls-1" d="M1378.4,124.24l-.05,164.56A21.05,21.05,0,0,1,1367.82,307l-142.54,82.24a21.05,21.05,0,0,1-21.05,0l-142.49-82.32a21.05,21.05,0,0,1-10.52-18.23l.05-164.56a21.05,21.05,0,0,1,10.53-18.23l142.54-82.24a21.05,21.05,0,0,1,21.05,0L1367.88,106A21.05,21.05,0,0,1,1378.4,124.24Z"/></mask></defs><title>logo_white</title><g id="Warstwa_2" data-name="Warstwa 2"><g id="Warstwa_1-2" data-name="Warstwa 1"><path class="cls-2" d="M1021.43,234.3a3.52,3.52,0,0,1-.24.3Z"/><path class="cls-2" d="M1021.93,233.69l-.1.12.51-.92c.71-.55,1.41-1,2.12-1.51C1026.66,229.88,1025.81,230.64,1021.93,233.69Z"/><path class="cls-2" d="M1082,186.17a.38.38,0,0,1,0,.09l0,.06Z"/><path class="cls-2" d="M1082.94,184.63l-.16.19C1081.6,186.21,1084.17,182.24,1082.94,184.63Z"/><path class="cls-2" d="M1084.26,182.87l0,0a2.49,2.49,0,0,0-.54.67C1083.83,182.4,1085.27,181.41,1084.26,182.87Z"/><path class="cls-2" d="M1086.51,180.7a.56.56,0,0,1-.11.17h0c-.35.29-.68.59-1,.9l-.14.12C1085.48,181.65,1085.92,181.24,1086.51,180.7Z"/><path class="cls-2" d="M1091.21,176.9a4.7,4.7,0,0,0-.85.63C1089.34,178,1089.37,177.27,1091.21,176.9Z"/><path class="cls-2" d="M1127.89,162.56l-.47.61.11-.18A4,4,0,0,1,1127.89,162.56Z"/><path class="cls-2" d="M1132.61,157.88c-.22.23-.44.44-.66.68l-.28.16Z"/><path class="cls-2" d="M1140.76,153.25l-.62.36-.35,0Z"/><path class="cls-2" d="M1214.18,88.55h0l.08-.11A.73.73,0,0,1,1214.18,88.55Zm0,0h0l.08-.11A.73.73,0,0,1,1214.18,88.55Z"/><path class="cls-2" d="M1214.18,88.55h0l.08-.11A.73.73,0,0,1,1214.18,88.55Zm0,0h0l.08-.11A.73.73,0,0,1,1214.18,88.55Z"/><path class="cls-2" d="M1214.18,88.55h0l.08-.11A.73.73,0,0,1,1214.18,88.55Zm0,0h0l.08-.11A.73.73,0,0,1,1214.18,88.55Z"/><path class="cls-2" d="M1021.19,234.6a3.52,3.52,0,0,0,.24-.3Z"/><path class="cls-2" d="M976.82,204.71a.36.36,0,0,1,.18-.17C976.91,204.67,976.84,204.71,976.82,204.71Zm44.36,29.89.24-.3A3.52,3.52,0,0,1,1021.19,234.6Zm106.24-71.43.11-.18a4,4,0,0,1,.35-.43Zm4.53-4.61-.28.16.94-.84C1132.39,158.11,1132.17,158.32,1132,158.56Zm8.18-4.95-.35,0,1-.4Zm214.13,32.82a10.35,10.35,0,0,1,1.36-1.5A6.9,6.9,0,0,1,1354.27,186.43Zm22-8.34c-.71.48-1,.68-1.1.72A6.59,6.59,0,0,1,1376.29,178.1Zm-.28.43c.09-.13.2-.28.32-.43S1376.38,178.17,1376,178.52Z"/><path class="cls-2" d="M1510.83,349.61c-1.41-4.87-4-9.24-7.8-11.53-4.31-2.63-7.79-1.53-12.38-1.15-5.1.44-9.83-1-12.66-6.74-2-4-3.19-8.66-4.78-12.95-1.47-3.94-3.33-8.69-6.48-10.93-4.2-3-8.55-.82-12.86,0s-9,1-12.85-1.83c-3.53-2.56-5.82-6.42-7.65-10.88-3.22-7.84-5.17-17-11.42-22.12-5.91-4.83-12.55-7.49-17.62-13.94a59.52,59.52,0,0,1-11.22-22.91c-2.19-9.05-3.55-18.19-6.84-26.8a123.46,123.46,0,0,0-7.26-16,28,28,0,0,0-5-7s-.91-.68-1.62-1.13c-4.67,6.23-10.48,11.47-17.18,13.45-8.19,2.42-15.81-2.11-21.72-8.88-3.27-3.73-6.34-6.57-10.91-6.86s-8.93.42-13.41-.67c-7.53-1.82-12.82-10-17.43-17-4.21-6.42-8.32-13.36-14.75-16.33s-12.9-3.38-18.45-8.53c-3.28-3-5.12-7.08-6.74-11.68-1.35-3.83-2.15-7.52-5.89-7-4.17.59-7.43,0-10.44-3.87-2.23-2.88-3.78-7.83-6.93-9.33-2.73-1.3-6.05,1-9.21,1.78s-6.25,1.29-9.5.65a8,8,0,0,1-6.1-4.95,4,4,0,0,1-.13-.42,131.82,131.82,0,0,0-7.45,18.76c-1.92,6-7.62,10.49-11.92,13.51-.73.53-5.84,3.66-8.94,3.78-4.66,4.51-10.58,8.57-16.14,8.17-2.1-.15-3.43-1.15-5.07-2.71l-.39-.36c-3.21,6.55-6.5,13.28-11.18,18.63-3.7,4.23-8.13,7.94-12.89,10-2.29,1-5.17,2.31-7.58,1-2.75-1.49-3.28-5.59-4.71-8.44a9.61,9.61,0,0,0-2.57-3.49,12.13,12.13,0,0,0-2.28-.93,2.22,2.22,0,0,0-.45,0h0l-.33.12h0s0,0,0,0h0c-.24.21-.49.42-.74.61-1.85,1.46-3.72,2.86-5.61,4.26-2.13,1.58-4.29,3.08-6.46,4.6-2.6,1.81-5.2,3.63-7.77,5.5a3.87,3.87,0,0,1-.6.38,4.7,4.7,0,0,1,.85-.63c-1.84.36-1.87,1.14-.85.63-.3.27-.58.54-.68.61-1.07.86-2.13,1.72-3.16,2.62l-.11.11a.56.56,0,0,0,.11-.17c-.59.54-1,.94-1.29,1.2l.14-.12c.34-.31.68-.61,1-.9-.31.35-1.11,1-1.31,1.22,0,0-.44.4-.81.76,1-1.46-.43-.47-.56.69a2.49,2.49,0,0,1,.54-.67,3.38,3.38,0,0,1-.28.39c-.35.44-.67.91-1,1.35,1.23-2.39-1.34,1.58-.16.19l.16-.19-.09.16c-.26.5-.56,1-.83,1.47a.38.38,0,0,0,0-.09l-.06.15,0-.06,0,.13c-1.34,3.66-1.37,6.25-3.47,10-4.14,7.46-11.86,13.76-18.89,15.78-3.45,1-7.14.2-10.67-.49a64.86,64.86,0,0,1-3,8.37,61.91,61.91,0,0,1-22.28,26.47c-1.6,1.05-11.57,7.2-11.59.57,0-2.63,2.45-6,3.71-7.61a37.79,37.79,0,0,1,6.61-6.61l-.51.92.1-.12c3.88-3,4.73-3.81,2.53-2.32-.71.47-1.41,1-2.12,1.51.19-.32.33-.59.34-.6a48.67,48.67,0,0,0,3-7.77c2-6.34,2.57-14,5.37-19.81s7.64-10.28,12.43-13.64a17.37,17.37,0,0,1,13.7-3.27c2.29.35,4.59.74,6.88,1.12a80.81,80.81,0,0,1,9.46-11.47c7.93-8.06,16.8-14.45,25.69-20.67l1.21-.85c-.3-2.25-2-3.25-3.23-5l-.28-.08h0c-1,.54-2,1-3,1.52L1076,161.8c-11.44,6-25.82,17-37.31,6-1.53-1.48-2.86-2.8-4.67-3.41a3.27,3.27,0,0,0,.54-.4c-.15,0-1.06.21-1.14.21a5.33,5.33,0,0,1,.6.18c-.59.35-1.33.65-1.81,1-4.31,2.92-8.32,6.7-12.34,10.18q-7.17,6.21-14.17,12.71c-3.54,3.28-7.42,6.35-10.22,10.66-2.3,3.56-4.07,6.67-7.43,8.9A29.84,29.84,0,0,1,974,212.42c-6,.54-12.05.49-18.05.69l-8.45.28c-.36,0-.8.08-1.28.14a23.89,23.89,0,0,0-2,5.13c-.54,2.26-.84,4.6-1.17,6.93a95,95,0,0,1-2.82,13.92c-2.82,9.54-7.82,17.1-15.35,21.27a34.51,34.51,0,0,1-19.61,4c-4.2-.32-8.29-1.08-12.5-.57-7.8,1-15.3,5.59-21.45,12.23a16.71,16.71,0,0,1-11.42,5.07c-1.59.05-7.17-1-4.14-4.29A69.85,69.85,0,0,1,890.2,256.6a60.69,60.69,0,0,1,19.29-1.74c.56,0,4.91.65,7.24.79.44-.51,1.09-1.15,1.52-1.74,5.72-7.7,6.81-18.81,8.42-28.64.88-5.37,2.47-10.36,6-13.91,5.17-5.24,12.25-6.88,18.74-7.21,6.3-.31,12.61-.4,18.91-.62.47,0,4.57-.08,7.34-.17a38.17,38.17,0,0,1,7.39-9.62c4.56-4.5,9.28-8.78,14-13,9.51-8.55,19.37-18.49,30.63-23.14,5.81-2.39,12.73-4,18.72-1.66a20.79,20.79,0,0,1,6.43,4.67c.3.28,1.67,1.22,2.38,1.88,5.18-3.42,11.13-5.76,16.51-8.59,5.68-3,11.32-6.23,17.1-9,6-2.84,13.77-5.37,20.09-2.61a10.91,10.91,0,0,1,4.09,3.09,43.72,43.72,0,0,1,8.49-4.25c4-1.43,8.9-2.29,12.67.28A11.58,11.58,0,0,1,1138,143a60.06,60.06,0,0,1,8.19-10.9c5.7-5.93,13.36-12.08,21-12.36a8.88,8.88,0,0,1,6.46,2.48,41.41,41.41,0,0,1,6.22-4.86,130.32,130.32,0,0,1,11.54-20.18,95.77,95.77,0,0,1,12-14.1c4.33-4.16,9-8.69,14.42-10.33,3.12-1,6.71-1,8.58,2.89,1.73,3.62-.9,7.79,1.56,11a3.39,3.39,0,0,0,1.6.85h0a10.38,10.38,0,0,0,1.16.15,16.85,16.85,0,0,1,1.79-.16h.13a.93.93,0,0,0,.22-.06c.9-.26,1.78-.53,2.66-.82a36.61,36.61,0,0,1,7.89-2c5-.43,8.7,1.75,11.78,6.53,1.31,2,2.47,4.84,4.19,6.4,1.37,1.24,2.2.82,3.81.59,4.14-.58,7.86.3,10.17,5s3.23,10,6.47,14.08c2.29,2.84,5.35,4.22,8.41,5.3,7.48,2.63,13.89,4.46,19.67,11.49,5.53,6.74,9.51,15.61,15.67,21.53,7.65,7.35,17.75,1,26,6.27,4.26,2.7,7,7.91,11,10.8a18.66,18.66,0,0,0,3.34,1.81,59.76,59.76,0,0,1,8.94-7.78c5.14-3.68,11.29-6.77,17.32-5.64,6.25,1.17,10.72,8.12,13.81,14.46a121.09,121.09,0,0,1,9.3,24.93c2.23,9.35,3.36,19.05,7.77,27.36a58.39,58.39,0,0,0,8.4,12.35c3,3.24,6.74,5.26,10.24,7.52,3.76,2.42,7.49,5.33,10.09,9.59,2.51,4.1,4,9,5.7,13.69,1.51,4.09,3.29,9.07,6.33,11.79,3.45,3.08,7.42,1.94,10.86,1.2,5-1.09,10.73-2.23,15.43,1.07,3.64,2.55,6,6.52,7.81,11.1s3.1,9.54,5.15,14c2.81,6.1,6.42,4.74,11.32,4.17,9.17-1.06,18.53,4.58,21.77,15.77C1537.08,339.73,1512.67,355.94,1510.83,349.61Z"/><path class="cls-2" d="M238.39,394.81c-4.29.82-16.25-9.07-31.18-6.21-33.4,6.41-76.46,70.39-57.42,66.74,8.58-1.65,25.74-18.1,56.34-24,40.12-7.7,49.48,10.82,52.27,25.38,10,51.87-43.41,100.42-79.8,107.4-12.13,2.33-34.43-5-38.69-27.21-2.29-11.94,10-12.18,11.87-2.66,1.65,8.58,13.09,8.71,18.68,7.64,22.39-4.3,62.41-46.8,56.47-77.78-2.65-13.81-7.07-24.76-20.14-22.25-30,5.76-50.22,26.66-55.25,27.63-9.89,1.9-22.09-6.21-23.63-14.23-5.73-29.86,41.32-90.15,77.52-97.1C230.63,353.35,247.72,393,238.39,394.81Z"/><path class="cls-2" d="M398.17,547.95c-46.46,8.92-64.5-62.88-88.64-63.67a95.28,95.28,0,0,0,1.22,15.44c8.21,22.61,16.13,24.57,9,25.93-14.37,2.76-34.5-10.41-41.7-47.91-3.47-18.1-9.48-83.69-10.31-88-1.9-9.89,27.27-8.13,29.16,1.76,1.72,9,2.61,51.93,5.82,75.69,3.24-19.39,13.59-42.08,22.74-43.83,12.5-2.4,26.61-5.49,30.23,13.35,3.4,17.73-5.63,29.13-18.47,36.82,16.68,20.4,41.06,67.77,70,62.22C415.27,534.22,414.78,544.76,398.17,547.95Zm-65-113.08c-2.83-14.74-21.6,3.37-23.64,40.13C333.75,466.28,333.89,438.79,333.14,434.87Z"/><path class="cls-2" d="M484.13,424.27c4.83,25.19-.71,57.79-16.76,60.87a61,61,0,0,1-11.63.88c4.63,8,7.55,11.13,1.77,12.24-11.2,2.15-32.17-3.31-36-23.46l-1.58-8.21-7,36.17c1.33,1.87,2.32,3,2.61,4.53.93,4.85-29.42,2.94-35.48-28.6-3.72-19.41-6.95-50.32-8.13-56.48-.82-4.29-6.71-8.77,1.12-10.28,9.14-1.75,21.72,1.25,23,7.78,1.22,6.34.41,28.36,5.28,53.74,2.44,12.69,5.77,20,8.6,24.66,1.59-7.85,5.85-28,7.79-43.09l-4.26-22.21c-.61-3.17-.57-8,3.54-8.8,4.29-.82,21.22-2.33,22.87,6.25L445,457.32a89,89,0,0,0,8.38,24.51c10.28-14,8.79-41.93,1.7-78.87-.82-4.29-1.2-3.25-2-7.17-.72-3.73,11.18-9.3,17-10.41C476.06,384.22,479.52,400.2,484.13,424.27Z"/><path class="cls-2" d="M489.38,367c-1.83-9.52,6.27-10.68,15.6-12.47,9.14-1.75,21.18,7.54,22.54,14.63C530.75,385.92,491.18,376.29,489.38,367ZM564,422.88c-.56,9.2-7.41,56.17-20.28,58.64l-.37.07c-24.26,4.66-33.94-29.67-37.23-46.83-4.15-21.65-3.6-29.88-4.5-34.54-1.58-8.21,23.33-5.45,25.12,3.88,1.29,6.72,2.32,18.13,3.86,26.15,3.83,20,10.15,31.71,14.68,38.2,6.86-5.57,14.17-40.06,14.55-45.16C560.19,418.38,564.13,419.75,564,422.88Z"/><path class="cls-2" d="M628.93,372.3c3,15.49,1.92,31.17-7.41,33-9.52,1.83-17.14-.58-17.92-4.69s-.7-20.76-.7-20.76-13.37,47.26-9.78,74c4.67,13.23,8.15,16.24,8.75,19.41,1,5-27.85,20.24-41.67-51.79-3.65-19-6.56-47.3-.22-48.52,12.5-2.4,19.54,3,21,10.86,1.47,7.65-.47,17.7,2.25,31.88,1.32,6.9,2.66,12.84,4,18,.16-25.38,7.78-70.37,16.36-72C613.94,359.7,626,356.81,628.93,372.3Z"/><path class="cls-2" d="M724.86,446.76c-11.94,2.29-27.14-3.3-31.19-24.39-.54-2.8-1.11-5.79-1.57-9.18l-7.34,38.36c1.14,1.91,2.14,3.07,2.5,4.94,1,5-27.81,6.3-34.15-26.72-3.9-20.34-5.43-53.52-6.69-60-.86-4.48-7.16-9.07,1.05-10.65,9.89-1.9,22.91,1.41,24.19,8.13s-1.5,30.47,3.58,57c2.11,11,4.33,17.55,6.31,21.81,2.08-9.3,6.69-31.66,8.49-47.48-1-7-1.72-13-2.12-15.07-.64-3.36-.83-8.35,3.65-9.21s22.15-2.51,23.91,6.63c1.15,6-1,10.84,4.25,38.27C723.9,440.75,732.13,445.36,724.86,446.76Z"/><path class="cls-2" d="M839.28,296c-14.22,7.57-46.24,19.13-76.2,27.39.38,27.21,1.1,59.18,4.61,77.47,9.52,49.64,26.55,50.63,15.35,52.77s-32.18-16.46-40-57.14c-3.65-19-4.8-44.16-5.29-66.89A171.58,171.58,0,0,1,714.82,333c-18.9,1.31-33.87-5.11-44.42-9.66-4.42-1.86-2.83-4.68-.11-4.62,19.19.19,43-2.65,67.24-6.52l0-5.81c0-15.28.06-26.9-.73-31-3.44-17.91,21.55-10.71,24.23,3.28.72,3.73,1.06,11.6,1.58,22.33l.1,6.56c32.06-6.34,61.48-13.34,76-16.14C844.24,290.55,843.66,293.57,839.28,296Z"/><path class="cls-2" d="M854.12,361.21c5.48,28.55,2.19,62.84-22.25,67.54-22,4.22-32-19.78-35.66-38.62-3.37-17.54-4.16-39.83,8.89-45.43,2.08-13.36,13.21-16.85,22-18.54C837.9,324.08,848.68,332.84,854.12,361.21ZM828,337.79c-6,1.15.21,20.27-5.36,27.53,4.52,22.54,5.13,54,16.7,51.74C851.05,414.8,847.92,334,828,337.79Z"/><path class="cls-2" d="M983.45,328.46c4.83,25.19-.71,57.79-16.76,60.87a61,61,0,0,1-11.63.88c4.63,8,7.55,11.13,1.77,12.24-11.2,2.15-32.17-3.31-36-23.46l-1.58-8.21-7,36.17c1.33,1.87,2.32,3,2.61,4.53.93,4.85-29.42,2.94-35.48-28.6-3.72-19.41-6.95-50.32-8.13-56.48-.82-4.29-6.71-8.77,1.12-10.28,9.14-1.75,21.71,1.25,23,7.78,1.22,6.34.41,28.36,5.28,53.74,2.43,12.69,5.77,20,8.6,24.66,1.59-7.85,5.85-28,7.79-43.09L912.74,337c-.61-3.17-.57-8,3.53-8.8,4.29-.82,21.22-2.33,22.87,6.25l5.19,27.06A89,89,0,0,0,952.71,386c10.28-14,8.79-41.93,1.7-78.87-.82-4.29-1.2-3.25-2-7.17-.72-3.73,11.18-9.3,17-10.41C975.38,288.41,978.83,304.39,983.45,328.46Z"/><path class="cls-2" d="M1087.47,322c-.59,4-2.64,51.78-31.94,57.4-25.94,5-45.9-15.38-49.48-34-4.65-24.26,3.36-49,9.54-57.16,6.36-8.19,24.49-10.5,30.81-8.81,6.1,1.54,11.85,9.33,13.86,19.78,3.76,19.59-3.6,31.65-15.73,34-4.48.86-10,.56-14.09.19,2.05,18.76,17.05,35.42,27.31,33.45,23.7-4.55,25.15-42.36,25.66-45.75C1084,317.28,1088,317.87,1087.47,322Zm-57.41,7.34c25.63,5.53,21.45-36.43,11.93-34.6C1032.29,296.64,1028.81,312.79,1030.06,329.38Z"/><path class="cls-2" d="M961.67,511.65c11.69,50.54-7,116.48-36.3,126.38a23.88,23.88,0,0,1-3.8,1.27c-15.74,3.64-32.76-11-46.08-62.67,1.5,35.15-2.45,75.45-11.7,77.59l-1.11.26a19.76,19.76,0,0,1-3.29,1c-17.59,4.07-34.18-13.74-38.72-33.37-4.45-19.25-10.18-57.52-18.34-93.66-13.13,4.79-26.27,12.9-46.08,17.48-28.14,6.51-45.18-25-39.26-26.42,5.74-1.33,5.88,8.59,22.36,4.77,27.58-6.38,44.7-17.55,60-22.26a17.1,17.1,0,0,1,3.25-1.14c12.4-2.87,30.65,5.2,35.53,26.3,2.48,10.74,14.92,86.45,18.34,101.26,1.37,5.92,6.5,15.46,10,14.65,6.83-21.08,3.95-95.11.78-113.87-2.52-8.39-6.24-11.82,4.67-13.56,11.28-1.83,26.88,12.51,30.39,27.69,3.85,16.66,5,23.41,8.06,36.55,5.31,23,14.9,38.29,17.82,47.56,11.64-14.59,13.77-77.09,5.46-113-13-56.28-49.42-69.51-32.57-73.4C917.74,437.17,947.85,451.86,961.67,511.65Z"/><path class="cls-2" d="M1077.36,604.64c-3.94,1.5-16.91-15.79-42.94-6.06-8.63,3.16-13.84,5.93-17.16,8.45a20.23,20.23,0,0,1-10.21,6.45c-8.14,1.88-24.53-20.07-14.35-22.42,17.4-4,24.06-46.91,33.46-72.87-11.73,4.08-25.67,7.89-37.61,7.72-21.43.08-20.38-7.18-1.44-7.08,18.9-.08,47.17-17,47.17-17l.23.14a10.93,10.93,0,0,1,5.55-3.82c2.59-.6,22.91,18.11,14.76,20-13.88,3.21-17.41,46.15-28.49,73.28,1.77-.8,3.53-1.6,5.67-2.48,23.38-8.53,34.33-10.08,42.71-4.22C1077.31,586.71,1081.49,603.1,1077.36,604.64Z"/><path class="cls-2" d="M1210.54,636.64c-6,27.92-77.58,88.73-120.87,79.43-9-2-34.73-16.93-33.28-30.92,2.57-22.63,57.29-39,56.18-33.66-1.15,5.14-38.69,14-43.21,35-6.28,29.34,119.68-14.61,129.17-58.73,1.46-7.16-2.78-14.57-13.85-16.88-15-3.35-31.35.23-45,5.15a2.91,2.91,0,0,1-1.32,1.87,2.31,2.31,0,0,1-2.11-.68c-16.29,6.3-28.59,13.82-30.84,13.37-3.08-.65-10.73-8.44-8.81-17.85,1.61-7.39,14.75-13,30.48-16.61l-.26-1.11c-.56-2.41-1.24-5.37-1.83-8.74l-.19,0c-13,3-34.24-5.54-41.9-38.68-6-25.92,11.35-70.69,21-72.91,15.92-3.68,21.27,9.32,22.17,13.2.94,4.07-30.42,28.68-20,73.85,3.51,15.18,10.67,19.18,17.42,15.47-1.78-11.09-3-22.32-1.53-22.66,4.26-1,8.28,3.74,11.57,10.39,5.79-12.06,8.57-31.24,3.48-53.26-1-4.26,11.48-5.19,14.69,8.69,2.53,10.92-.61,42.07-14,57.64a131.75,131.75,0,0,1,2.26,15.66c15.66-2.26,31.39-2.58,39.6-.77C1204.59,598.23,1212.56,626.81,1210.54,636.64Z"/><path class="cls-2" d="M1222.92,500.39c6.55,28.32,4.56,62.72-19.7,68.32-21.84,5.05-32.76-18.56-37.09-37.25-4-17.4-5.66-39.64,7.17-45.73,1.57-13.43,12.57-17.34,21.27-19.35C1205.31,463.9,1216.41,472.25,1222.92,500.39Zm-37.21-51.27c-7.36,4.43-14,6-19.37,5.65-5-.41-5.77-4.71,3.64-10.4,9.78-5.77,14.86-19.23,18.12-21.16,3.4-2.15,12.25.68,15.35,4.84C1204.63,429.73,1195.4,443,1185.71,449.12ZM1195.89,478c-5.92,1.37,1,20.25-4.32,27.72,5.36,22.36,7.16,53.73,18.64,51.07C1221.87,554.07,1215.7,473.39,1195.89,478Z"/><path class="cls-2" d="M1301,450c3.55,15.37,3.09,31.07-6.17,33.21-9.44,2.18-17.15.06-18.09-4s-1.48-20.72-1.48-20.72-11.59,47.73-7,74.36c5.16,13,8.75,15.92,9.48,19.07,1.16,5-27.06,21.27-43.58-50.18-4.37-18.88-8.34-47-2-48.48,12.4-2.87,19.64,2.28,21.44,10.06,1.76,7.59.19,17.7,3.45,31.77,1.58,6.85,3.14,12.73,4.71,17.83-.79-25.36,5.13-70.61,13.64-72.58C1285.5,437.95,1297.41,434.61,1301,450Z"/><path class="cls-2" d="M1406.49,528.54c-3.94,1.5-16.91-15.79-42.94-6.06-8.63,3.16-13.84,5.93-17.16,8.45a20.23,20.23,0,0,1-10.21,6.45c-8.14,1.88-24.53-20.07-14.35-22.42,17.4-4,24.06-46.91,33.46-72.87-11.73,4.08-25.67,7.89-37.61,7.72-21.43.08-20.38-7.18-1.44-7.08,18.9-.08,47.17-17,47.17-17l.23.14a10.93,10.93,0,0,1,5.55-3.82c2.59-.6,22.91,18.11,14.76,20-13.88,3.21-17.41,46.15-28.49,73.28,1.77-.8,3.53-1.6,5.67-2.48,23.38-8.53,34.33-10.08,42.71-4.22C1406.44,510.61,1410.62,527,1406.49,528.54Z"/><path class="cls-2" d="M1483.13,445.88c-.44,4-.69,51.84-29.75,58.56-25.73,6-46.45-13.64-50.73-32.15-5.56-24.06,1.52-49.1,7.38-57.48,6-8.42,24.08-11.42,30.46-10,6.15,1.31,12.19,8.88,14.59,19.25,4.49,19.44-2.41,31.76-14.44,34.54-4.44,1-9.93.93-14.07.72,2.76,18.67,18.37,34.75,28.55,32.4,23.51-5.44,23.54-43.28,23.92-46.68C1479.52,441.25,1483.52,441.69,1483.13,445.88ZM1426,455.37c25.82,4.56,20.06-37.2,10.62-35C1427,422.58,1424.17,438.84,1426,455.37Z"/><ellipse class="cls-3" cx="862.79" cy="396.31" rx="852.79" ry="386.31"/><path class="cls-4" d="M193.48,229.14c87.45-71.7,229.42-127.85,400.57-157"/><path class="cls-4" d="M1513.67,577.77c-74.73,54.89-182.35,99.61-310.4,128.53"/><g class="cls-5"><path class="cls-2" d="M1229.18,393.32s-42.6,4-42.61,4c-3.69-5.67-10.18-22.44-35.91-38.93-7.32-4.69-15.5-5.48-4.66-19.29,37.56-47.87,58-55.73,93-64.58,12-3,16.53-1.6,23.09-4.66a12.91,12.91,0,0,0,5.37-4.43c12.24-18.38-47.94-40.59-75.17-46.34-59.18-13.69-46.74-26.45-41.48-30.71a14.63,14.63,0,0,1,6.18-2.85c11.35-2.43,42.89-4.94,66.45-6.06,19.71-.94,26.94-2.56,29.1-4.86a2.33,2.33,0,0,0-1-3.74c-11.48-4.07-69.71-10.32-69.71-10.32s107.86,6.85,94.68,14.17c-14.15,7.86-42.08,11.36-54.63,16.62a2.56,2.56,0,0,0,.38,4.85c44.36,10.74,87.88,36.3,104,49,18,14.14,49,27.48,14.08,54.24-27.58,21.11-38.56,25.86-42.38,38.84a24.82,24.82,0,0,0-.89,4.44c-1,10-34.75,21.86-7.63,14.06,4.33-1.25-5.28,17.89-23.67,14.13Z"/></g></g></g></svg>